# xmcd
#
# Track frame offsets: 
#        150
#        13464
#        31873
#        51597
#        72427
#        101730
#        124686
#        140530
#        154511
#        179954
#
# Disc length: 2652 seconds
#
# Revision: 0
# Processed by: cddbd v1.5.2PL0 Copyright (c) Steve Scherf et al.
# Submitted via: ExactAudioCopyFreeDBPlugin 1.0
#
DISCID=960a5a0a
DTITLE=Gene Clark - Two Sides To Every Story
DYEAR=1977
DGENRE=Country-Rock
TTITLE0=Home Run King
TTITLE1=Lonely Saturday
TTITLE2=In The Pines
TTITLE3=Kansas City Southern
TTITLE4=Give My Love To Marie
TTITLE5=Sister Moon
TTITLE6=Marylou
TTITLE7=Hear The Wind
TTITLE8=Past Addresses
TTITLE9=Silent Crusade
EXTD=
EXTT0=
EXTT1=
EXTT2=
EXTT3=
EXTT4=
EXTT5=
EXTT6=
EXTT7=
EXTT8=
EXTT9=
PLAYORDER=
